<?xml version="1.0" encoding="utf-8"?>
<!-- Generator: Adobe Illustrator 16.0.0, SVG Export Plug-In . SVG Version: 6.00 Build 0)  -->
<!DOCTYPE svg PUBLIC "-//W3C//DTD SVG 1.0//EN" "http://www.w3.org/TR/2001/REC-SVG-20010904/DTD/svg10.dtd">
<svg version="1.0" id="Layer_1" xmlns="http://www.w3.org/2000/svg" xmlns:xlink="http://www.w3.org/1999/xlink" x="0px" y="0px"
	 width="500px" height="500px" viewBox="0 0 500 500" enable-background="new 0 0 500 500" xml:space="preserve">
<path fill="#B5CDE2" d="M400,79.6c0-24.853-67.156-45-150-45s-150,20.147-150,45c0,0.229,0.033,0.455,0.084,0.68L142,420.4
	c0,24.853,48.353,45,108,45s108-20.147,108-45l41.916-340.121C399.967,80.055,400,79.829,400,79.6z"/>
<path fill="#FADD33" d="M375,108c0-20.711-55.964-37.5-125-37.5S125,87.289,125,108c0,0.19,0.027,0.379,0.07,0.566L160,392
	c0,20.711,40.294,37.5,90,37.5s90-16.789,90-37.5l34.93-283.434C374.973,108.379,375,108.19,375,108z"/>
<g>
	<path fill="#FFFFFF" d="M209.189,277.984c0,10.966-11.275,19.857-25.188,19.857s-25.191-8.892-25.191-19.857
		c0-10.972,11.279-19.86,25.191-19.86S209.189,267.013,209.189,277.984z"/>
	<path fill="#FFFFFF" d="M203.863,303.659c0,5.617-5.639,10.17-12.596,10.17c-6.955,0-12.596-4.553-12.596-10.17
		c0-5.625,5.641-10.176,12.596-10.176C198.225,293.483,203.863,298.034,203.863,303.659z"/>
</g>
<path fill="#FFFFFF" d="M137.064,209.333c2.256,0.167,11.807,0.85,26.271,1.6c8.732,0.453,18.113,34.568,47.064,34.571
	c28.99,0.003,43.004-32.729,63.073-32.729c61.697,0,90.237-9.74,90.237-9.74l0,0l11.719-95.249c0.043-0.188,0.07-0.378,0.07-0.569
	c0-20.829-56.188-37.713-125.5-37.713S124.5,86.39,124.5,107.218c0,0.191,0.027,0.381,0.07,0.569L137.064,209.333z"/>
<g>
	<path fill="#343432" d="M168.658,389.6l18.964-11.479c3.658,6.484,6.986,11.975,14.971,11.975c7.651,0,12.474-2.994,12.474-14.632
		v-79.186h23.29v79.515c0,24.121-14.139,35.096-34.767,35.096C184.958,410.889,174.146,401.243,168.658,389.6"/>
	<path fill="#343432" d="M251,387.102l18.959-10.979c4.993,8.153,11.483,14.141,22.959,14.141c9.648,0,15.801-4.826,15.801-11.478
		c0-7.986-6.319-10.812-16.965-15.469l-5.821-2.497c-16.804-7.15-27.948-16.13-27.948-35.098c0-17.469,13.309-30.771,34.099-30.771
		c14.807,0,25.454,5.154,33.104,18.631l-18.13,11.639c-3.992-7.148-8.317-9.98-14.974-9.98c-6.818,0-11.145,4.329-11.145,9.98
		c0,6.988,4.326,9.82,14.306,14.143l5.823,2.494c19.796,8.486,30.94,17.137,30.94,36.594c0,20.962-16.47,32.438-38.592,32.438
		C271.791,410.889,257.82,400.579,251,387.102"/>
</g>
</svg>
